<svg width="60" height="60" viewBox="0 0 60 60" fill="none" xmlns="http://www.w3.org/2000/svg">
<rect width="60" height="60" rx="30" fill="#ECEFF4"/>
<path d="M38.8572 18.8854C39.202 18.8854 39.5326 19.0156 39.7764 19.2473C40.0202 19.4791 40.1572 19.7934 40.1572 20.1212V39.9397C40.1572 40.2674 40.0202 40.5817 39.7764 40.8135C39.5326 41.0452 39.202 41.1755 38.8572 41.1755H21.1742C20.8294 41.1755 20.4987 41.0452 20.2549 40.8135C20.0111 40.5817 19.8742 40.2674 19.8742 39.9397V20.1174C19.8742 19.7896 20.0111 19.4753 20.2549 19.2435C20.4987 19.0118 20.8294 18.8816 21.1742 18.8816H38.8572M38.8572 16.9404H21.1742C20.2891 16.9404 19.4402 17.2746 18.8142 17.8695C18.1882 18.4644 17.8364 19.2712 17.8362 20.1126V39.9397C17.8362 40.7812 18.1879 41.5883 18.8139 42.1834C19.4399 42.7785 20.2889 43.1128 21.1742 43.1128H38.8572C39.7425 43.1128 40.5915 42.7785 41.2175 42.1834C41.8435 41.5883 42.1952 40.7812 42.1952 39.9397V20.1174C42.1952 19.2758 41.8435 18.4687 41.2175 17.8736C40.5915 17.2785 39.7425 16.9442 38.8572 16.9442V16.9404Z" fill="#5E81AC"/>
<path d="M37.3232 22.7554H22.7082C22.5751 22.7554 22.4672 22.8579 22.4672 22.9845C22.4672 23.111 22.5751 23.2136 22.7082 23.2136H37.3232C37.4563 23.2136 37.5642 23.111 37.5642 22.9845C37.5642 22.8579 37.4563 22.7554 37.3232 22.7554Z" fill="black"/>
<path d="M37.4741 22.0043H22.5581C22.3244 22.0043 22.1003 22.0926 21.9351 22.2496C21.7699 22.4067 21.6771 22.6198 21.6771 22.8419V23.127C21.6771 23.3492 21.7699 23.5621 21.9351 23.7192C22.1003 23.8763 22.3244 23.9645 22.5581 23.9645H37.4741C37.7078 23.9645 37.9318 23.8763 38.097 23.7192C38.2623 23.5621 38.3551 23.3492 38.3551 23.127V22.8419C38.3551 22.6198 38.2623 22.4067 38.097 22.2496C37.9318 22.0926 37.7078 22.0043 37.4741 22.0043Z" fill="#5E81AC"/>
<path d="M37.3241 27.1529H22.708C22.5518 27.1529 22.425 27.2733 22.425 27.4219V27.4229C22.425 27.5714 22.5518 27.6919 22.708 27.6919H37.3241C37.4803 27.6919 37.6071 27.5714 37.6071 27.4229V27.4219C37.6071 27.2733 37.4803 27.1529 37.3241 27.1529Z" fill="black"/>
<path d="M37.4741 26.4418H22.5581C22.3244 26.4418 22.1003 26.5301 21.9351 26.6871C21.7699 26.8442 21.6771 27.0572 21.6771 27.2793V27.5645C21.6771 27.7867 21.7699 27.9996 21.9351 28.1567C22.1003 28.3138 22.3244 28.402 22.5581 28.402H37.4741C37.7078 28.402 37.9318 28.3138 38.097 28.1567C38.2623 27.9996 38.3551 27.7867 38.3551 27.5645V27.2793C38.3551 27.0572 38.2623 26.8442 38.097 26.6871C37.9318 26.5301 37.7078 26.4418 37.4741 26.4418Z" fill="#5E81AC"/>
<path d="M31.086 31.5352H22.708C22.539 31.5352 22.402 31.6652 22.402 31.8256C22.402 31.986 22.539 32.116 22.708 32.116H31.086C31.255 32.116 31.392 31.986 31.392 31.8256C31.392 31.6652 31.255 31.5352 31.086 31.5352Z" fill="black"/>
<path d="M31.2371 30.8451H22.5581C22.3244 30.8451 22.1003 30.9333 21.9351 31.0904C21.7699 31.2475 21.6771 31.4605 21.6771 31.6826V31.9678C21.6771 32.1899 21.7699 32.4029 21.9351 32.56C22.1003 32.717 22.3244 32.8053 22.5581 32.8053H31.2371C31.4708 32.8053 31.6948 32.717 31.86 32.56C32.0253 32.4029 32.1181 32.1899 32.1181 31.9678V31.6826C32.1181 31.4605 32.0253 31.2475 31.86 31.0904C31.6948 30.9333 31.4708 30.8451 31.2371 30.8451Z" fill="#5E81AC"/>
</svg>
