<svg width="60" height="60" viewBox="0 0 60 60" fill="none" xmlns="http://www.w3.org/2000/svg">
<rect width="60" height="60" rx="30" fill="#ECEFF4"/>
<path d="M30.2281 25.6043C31.5981 25.6069 32.9182 26.093 33.9326 26.9684C34.9469 27.8438 35.583 29.0462 35.7176 30.3423C35.8522 31.6383 35.4756 32.9357 34.661 33.9828C33.8463 35.0298 32.6516 35.752 31.3085 36.0091C29.9655 36.2662 28.5699 36.0399 27.3923 35.3743C26.2148 34.7086 25.3393 33.6509 24.9357 32.4064C24.532 31.1618 24.629 29.8191 25.2078 28.6387C25.7866 27.4583 26.8059 26.5243 28.0681 26.0179C28.7516 25.7436 29.4862 25.603 30.2281 25.6043ZM30.2281 23.6851C28.2204 23.6851 26.295 24.4432 24.8753 25.7928C23.4557 27.1423 22.6581 28.9727 22.6581 30.8812C22.6581 32.7898 23.4557 34.6201 24.8753 35.9697C26.295 37.3192 28.2204 38.0774 30.2281 38.0774C32.2358 38.0774 34.1612 37.3192 35.5809 35.9697C37.0005 34.6201 37.7981 32.7898 37.7981 30.8812C37.7981 28.9727 37.0005 27.1423 35.5809 25.7928C34.1612 24.4432 32.2358 23.6851 30.2281 23.6851Z" fill="#5E81AC"/>
<path d="M31.8642 17.5441V20.3408L33.3222 20.7419C34.1083 20.9585 34.8667 21.2576 35.5832 21.6336L36.9122 22.3304L37.9852 21.3094L38.9932 20.3512L41.3062 22.55L40.2982 23.5082L39.2242 24.5282L39.9592 25.7916C40.3547 26.4728 40.6694 27.1936 40.8972 27.9409L41.3192 29.327H44.2602V32.4355H41.3182L40.8962 33.8215C40.6684 34.5688 40.3538 35.2897 39.9582 35.9708L39.2252 37.2342L40.2992 38.2542L41.3072 39.2124L38.9942 41.4112L37.9862 40.453L36.9132 39.432L35.5842 40.1307C34.8676 40.5067 34.1093 40.8058 33.3232 41.0224L31.8652 41.4236V44.2193H28.5942V41.4226L27.1362 41.0215C26.3501 40.8049 25.5917 40.5058 24.8752 40.1298L23.5462 39.433L22.4732 40.4539L21.4652 41.4122L19.1522 39.2134L20.1602 38.2552L21.2342 37.2351L20.5012 35.9718C20.1057 35.2906 19.7911 34.5697 19.5632 33.8224L19.1412 32.4364H16.1992V29.3279H19.1412L19.5632 27.9419C19.7911 27.1946 20.1057 26.4738 20.5012 25.7926L21.2342 24.5292L20.1602 23.5082L19.1522 22.55L21.4652 20.3512L22.4732 21.3094L23.5462 22.3304L24.8752 21.6336C25.5917 21.2576 26.3501 20.9585 27.1362 20.7419L28.5942 20.3408V17.5441H31.8642ZM32.5262 15.6248H27.9322C27.5723 15.6248 27.2271 15.7607 26.9727 16.0026C26.7182 16.2445 26.5752 16.5726 26.5752 16.9147V18.8977C25.6448 19.1535 24.7472 19.5071 23.8992 19.952L22.4232 18.5498C22.2972 18.4299 22.1475 18.3348 21.9828 18.2699C21.8181 18.2049 21.6415 18.1715 21.4632 18.1715C21.2849 18.1715 21.1083 18.2049 20.9436 18.2699C20.7789 18.3348 20.6292 18.4299 20.5032 18.5498L17.2552 21.6374C17.1291 21.7572 17.029 21.8995 16.9607 22.0561C16.8924 22.2126 16.8573 22.3805 16.8573 22.55C16.8573 22.7195 16.8924 22.8874 16.9607 23.0439C17.029 23.2005 17.1291 23.3428 17.2552 23.4626L18.7302 24.8657C18.2623 25.6719 17.8903 26.5251 17.6212 27.4096H15.5352C15.1756 27.4098 14.8309 27.5457 14.5767 27.7874C14.3224 28.0291 14.1795 28.3568 14.1792 28.6986V33.0657C14.1792 33.4078 14.3222 33.736 14.5767 33.9779C14.8311 34.2198 15.1763 34.3557 15.5362 34.3557H17.6222C17.8914 35.2399 18.2633 36.0928 18.7312 36.8986L17.2562 38.3017C17.13 38.4215 17.03 38.5638 16.9617 38.7204C16.8934 38.877 16.8583 39.0448 16.8583 39.2143C16.8583 39.3838 16.8934 39.5517 16.9617 39.7083C17.03 39.8649 17.13 40.0071 17.2562 40.1269L20.5042 43.2145C20.6302 43.3344 20.7799 43.4296 20.9446 43.4945C21.1093 43.5594 21.2859 43.5928 21.4642 43.5928C21.6425 43.5928 21.8191 43.5594 21.9838 43.4945C22.1485 43.4296 22.2982 43.3344 22.4242 43.2145L23.9002 41.8124C24.7482 42.2572 25.6458 42.6108 26.5762 42.8666V44.8496C26.5762 45.1917 26.7192 45.5198 26.9736 45.7617C27.2281 46.0037 27.5733 46.1396 27.9332 46.1396H32.5272C32.8871 46.1396 33.2323 46.0037 33.4867 45.7617C33.7412 45.5198 33.8842 45.1917 33.8842 44.8496V42.8666C34.8146 42.6108 35.7122 42.2572 36.5602 41.8124L38.0362 43.2145C38.1622 43.3344 38.3119 43.4296 38.4766 43.4945C38.6413 43.5594 38.8179 43.5928 38.9962 43.5928C39.1745 43.5928 39.3511 43.5594 39.5158 43.4945C39.6805 43.4296 39.8302 43.3344 39.9562 43.2145L43.2042 40.1269C43.3303 40.0071 43.4304 39.8649 43.4987 39.7083C43.567 39.5517 43.6021 39.3838 43.6021 39.2143C43.6021 39.0448 43.567 38.877 43.4987 38.7204C43.4304 38.5638 43.3303 38.4215 43.2042 38.3017L41.7292 36.8986C42.1971 36.0928 42.569 35.2399 42.8382 34.3557H44.9242C45.2841 34.3557 45.6293 34.2198 45.8837 33.9779C46.1382 33.736 46.2812 33.4078 46.2812 33.0657V28.6986C46.2812 28.3565 46.1382 28.0284 45.8837 27.7864C45.6293 27.5445 45.2841 27.4086 44.9242 27.4086H42.8382C42.5691 26.5241 42.1971 25.6709 41.7292 24.8648L43.2042 23.4616C43.3303 23.3418 43.4304 23.1996 43.4987 23.043C43.567 22.8864 43.6021 22.7186 43.6021 22.5491C43.6021 22.3795 43.567 22.2117 43.4987 22.0551C43.4304 21.8985 43.3303 21.7563 43.2042 21.6365L39.9562 18.5489C39.8302 18.4289 39.6805 18.3338 39.5158 18.2689C39.3511 18.204 39.1745 18.1706 38.9962 18.1706C38.8179 18.1706 38.6413 18.204 38.4766 18.2689C38.3119 18.3338 38.1622 18.4289 38.0362 18.5489L36.5602 19.951C35.7122 19.5062 34.8146 19.1526 33.8842 18.8968V16.9138C33.8841 16.7443 33.8488 16.5765 33.7804 16.42C33.712 16.2635 33.6119 16.1213 33.4857 16.0016C33.3595 15.8819 33.2097 15.787 33.0449 15.7223C32.8801 15.6577 32.7035 15.6245 32.5252 15.6248H32.5262Z" fill="#5E81AC"/>
</svg>
