<svg width="60" height="60" viewBox="0 0 60 60" fill="none" xmlns="http://www.w3.org/2000/svg">
<rect width="60" height="60" rx="30" fill="#ECEFF4"/>
<path d="M41.4477 17.1811L35.9752 23.3786C35.223 24.2304 35.3396 25.5005 36.2357 26.2155L36.2364 26.2161C37.1325 26.9311 38.4686 26.8203 39.2207 25.9685L44.6933 19.771C45.4454 18.9192 45.3288 17.6491 44.4328 16.9341L44.432 16.9335C43.536 16.2185 42.1999 16.3294 41.4477 17.1811Z" fill="#5E81AC"/>
<path d="M32.595 28.921L33.449 26.1642C33.486 26.0445 33.5539 25.9355 33.6464 25.847C33.7389 25.7584 33.853 25.6932 33.9787 25.6571C34.1043 25.6211 34.2375 25.6154 34.366 25.6405C34.4946 25.6657 34.6145 25.7208 34.715 25.8011L36.564 27.2764C36.6646 27.3566 36.7426 27.4592 36.7909 27.5752C36.8393 27.6911 36.8566 27.8167 36.8411 27.9406C36.8256 28.0645 36.7779 28.1827 36.7023 28.2847C36.6267 28.3866 36.5255 28.4691 36.408 28.5246L33.708 29.8022C33.5706 29.8678 33.416 29.8939 33.2632 29.8772C33.1104 29.8605 32.9661 29.8017 32.8479 29.7081C32.7298 29.6146 32.6429 29.4903 32.5979 29.3504C32.553 29.2106 32.552 29.0613 32.595 28.921Z" fill="#5E81AC"/>
<path d="M39.8101 42.1261H21.7901C20.9528 42.1398 20.144 41.8373 19.541 41.2848C18.9381 40.7323 18.5904 39.9751 18.5741 39.1792V23.3096C18.5901 22.5136 18.9378 21.7562 19.5408 21.2036C20.1437 20.6511 20.9527 20.3486 21.7901 20.3626L33.5901 20.3712C33.9046 20.3712 34.2063 20.49 34.4287 20.7014C34.6511 20.9129 34.7761 21.1996 34.7761 21.4986C34.7761 21.7977 34.6511 22.0844 34.4287 22.2959C34.2063 22.5073 33.9046 22.6261 33.5901 22.6261L21.7901 22.6175C21.5826 22.6041 21.378 22.6689 21.2204 22.7979C21.0628 22.9269 20.965 23.1097 20.9481 23.3067V39.182C20.9652 39.3793 21.0634 39.5623 21.2213 39.6912C21.3793 39.8202 21.5843 39.8849 21.7921 39.8712H39.8121C40.0198 39.8846 40.2247 39.8199 40.3826 39.6909C40.5405 39.562 40.6387 39.3792 40.6561 39.182L40.6651 26.8411C40.6651 26.5421 40.79 26.2553 41.0125 26.0439C41.2349 25.8325 41.5365 25.7137 41.8511 25.7137C42.1656 25.7137 42.4673 25.8325 42.6897 26.0439C42.9121 26.2553 43.0371 26.5421 43.0371 26.8411L43.0241 39.1849C43.0067 39.9796 42.6588 40.7354 42.0563 41.2867C41.4539 41.838 40.6462 42.1398 39.8101 42.1261Z" fill="#5E81AC"/>
</svg>
