<svg width="55" height="23" viewBox="0 0 55 23" fill="none" xmlns="http://www.w3.org/2000/svg">
<path d="M0.609 18.254H3.868L3.259 21.695H0L0.609 18.254Z" fill="#4C566A"/>
<path d="M16.963 20.359C16.9101 20.4273 16.8486 20.4885 16.78 20.541C16.2642 21.0639 15.639 21.4659 14.9492 21.7182C14.2595 21.9705 13.5224 22.0667 12.791 22C9.25799 22 7.55298 20.481 7.55298 17.351C7.56723 16.4634 7.65891 15.5787 7.82698 14.707L8.22698 12.428C9.04898 7.809 10.907 5.956 14.714 5.956C15.8444 5.92029 16.9655 6.17107 17.973 6.685C18.1867 6.82055 18.3814 6.98399 18.552 7.171L18.796 7.353L20.101 0H23.207L19.37 21.7H16.964L16.963 20.359ZM10.872 14.92C10.7584 15.5007 10.6972 16.0904 10.689 16.682C10.689 18.566 11.572 19.508 13.4 19.508C15.623 19.508 16.9 18.171 17.39 15.375L17.877 12.575C17.9634 12.1129 18.0142 11.6449 18.029 11.175C18.0721 10.7997 18.0287 10.4195 17.9023 10.0635C17.7758 9.70756 17.5695 9.38526 17.2993 9.12129C17.029 8.85732 16.702 8.65868 16.3431 8.5406C15.9843 8.42251 15.6032 8.3881 15.229 8.44C13.006 8.44 11.788 9.84 11.209 13.028L10.872 14.92Z" fill="#4C566A"/>
<path d="M25.644 12.377C26.436 7.809 28.537 5.92 32.862 5.92C36.882 5.92 38.801 7.47299 38.801 10.732C38.7822 11.5593 38.7007 12.384 38.557 13.199L38.131 15.544C37.339 20.112 35.207 22.001 30.913 22.001C26.893 22.001 24.974 20.417 24.974 17.159C24.9902 16.3517 25.0718 15.5471 25.218 14.753L25.644 12.377ZM35.481 12.986C35.5935 12.3924 35.6547 11.7901 35.664 11.186C35.664 9.328 34.689 8.415 32.74 8.415C30.395 8.415 29.207 9.755 28.629 12.983L28.294 14.932C28.1804 15.514 28.1192 16.105 28.111 16.698C28.111 18.586 29.055 19.498 31.035 19.498C33.38 19.498 34.568 18.158 35.146 14.93L35.481 12.986Z" fill="#4C566A"/>
<path d="M53.3881 19.62C52.7116 20.4266 51.8544 21.0622 50.886 21.4751C49.9176 21.888 48.8654 22.0664 47.8151 21.996C44.1601 21.996 42.181 20.169 42.181 16.819C42.2071 15.9 42.2988 14.984 42.4551 14.078L42.6381 12.951C43.0951 10.423 43.643 9.083 44.709 7.926C45.3448 7.24855 46.1209 6.71807 46.9829 6.37159C47.845 6.02511 48.7723 5.87099 49.7001 5.92001C52.4711 5.92001 54.2071 6.925 55.0001 8.966L52.472 9.97101C52.245 9.45702 51.8595 9.02908 51.3719 8.74969C50.8844 8.47029 50.3203 8.35408 49.762 8.41801C47.539 8.41801 46.29 9.91001 45.681 13.291L45.4371 14.722C45.3412 15.3059 45.2904 15.8963 45.285 16.488C45.285 18.529 46.1991 19.503 48.1481 19.503C48.7687 19.526 49.3858 19.3996 49.9475 19.1346C50.5092 18.8696 50.9991 18.4736 51.376 17.98L53.3881 19.62Z" fill="#4C566A"/>
</svg>
