<svg width="55" height="24" viewBox="0 0 55 24" fill="none" xmlns="http://www.w3.org/2000/svg">
<path d="M0.609 19.2437H3.868L3.259 22.6847H0L0.609 19.2437Z" fill="#4C566A"/>
<path d="M16.963 21.3487C16.9101 21.417 16.8486 21.4782 16.78 21.5307C16.2642 22.0536 15.639 22.4556 14.9492 22.7079C14.2595 22.9602 13.5224 23.0564 12.791 22.9897C9.25799 22.9897 7.55298 21.4707 7.55298 18.3407C7.56723 17.4531 7.65891 16.5684 7.82698 15.6967L8.22698 13.4177C9.04898 8.79873 10.907 6.94573 14.714 6.94573C15.8444 6.91002 16.9655 7.1608 17.973 7.67473C18.1867 7.81028 18.3814 7.97372 18.552 8.16073L18.796 8.34273L20.101 0.989731H23.207L19.37 22.6897H16.964L16.963 21.3487ZM10.872 15.9097C10.7584 16.4904 10.6972 17.0801 10.689 17.6717C10.689 19.5557 11.572 20.4977 13.4 20.4977C15.623 20.4977 16.9 19.1607 17.39 16.3647L17.877 13.5647C17.9634 13.1026 18.0142 12.6346 18.029 12.1647C18.0721 11.7894 18.0287 11.4092 17.9023 11.0533C17.7758 10.6973 17.5695 10.375 17.2993 10.111C17.029 9.84705 16.702 9.64842 16.3431 9.53033C15.9843 9.41224 15.6032 9.37783 15.229 9.42973C13.006 9.42973 11.788 10.8297 11.209 14.0177L10.872 15.9097Z" fill="#4C566A"/>
<path d="M25.644 13.3667C26.436 8.79873 28.537 6.90973 32.862 6.90973C36.882 6.90973 38.801 8.46273 38.801 11.7217C38.7822 12.549 38.7007 13.3738 38.557 14.1887L38.131 16.5337C37.339 21.1017 35.207 22.9907 30.913 22.9907C26.893 22.9907 24.974 21.4067 24.974 18.1487C24.9902 17.3415 25.0718 16.5368 25.218 15.7427L25.644 13.3667ZM35.481 13.9757C35.5935 13.3821 35.6547 12.7799 35.664 12.1757C35.664 10.3177 34.689 9.40473 32.74 9.40473C30.395 9.40473 29.207 10.7447 28.629 13.9727L28.294 15.9217C28.1804 16.5038 28.1192 17.0948 28.111 17.6877C28.111 19.5757 29.055 20.4877 31.035 20.4877C33.38 20.4877 34.568 19.1477 35.146 15.9197L35.481 13.9757Z" fill="#4C566A"/>
<path d="M53.3881 20.6097C52.7116 21.4164 51.8544 22.052 50.886 22.4648C49.9176 22.8777 48.8654 23.0562 47.8151 22.9857C44.1601 22.9857 42.181 21.1587 42.181 17.8087C42.2071 16.8897 42.2988 15.9737 42.4551 15.0677L42.6381 13.9407C43.0951 11.4127 43.643 10.0727 44.709 8.91573C45.3448 8.23828 46.1209 7.7078 46.9829 7.36132C47.845 7.01484 48.7723 6.86072 49.7001 6.90974C52.4711 6.90974 54.2071 7.91473 55.0001 9.95573L52.472 10.9607C52.245 10.4467 51.8595 10.0188 51.3719 9.73942C50.8844 9.46003 50.3203 9.34381 49.762 9.40774C47.539 9.40774 46.29 10.8997 45.681 14.2807L45.4371 15.7117C45.3412 16.2956 45.2904 16.886 45.285 17.4777C45.285 19.5187 46.1991 20.4927 48.1481 20.4927C48.7687 20.5157 49.3858 20.3894 49.9475 20.1243C50.5092 19.8593 50.9991 19.4634 51.376 18.9697L53.3881 20.6097Z" fill="#4C566A"/>
</svg>
